<svg width="48" height="48" viewBox="0 0 48 48" fill="none" xmlns="http://www.w3.org/2000/svg">
<path d="M24 48C37.2548 48 48 37.2548 48 24C48 10.7452 37.2548 0 24 0C10.7452 0 0 10.7452 0 24C0 37.2548 10.7452 48 24 48Z" fill="url(#paint0_linear)"/>
<path d="M10.8638 23.7471C17.8603 20.6988 22.5257 18.6892 24.86 17.7183C31.5251 14.946 32.91 14.4645 33.8127 14.4484C34.0113 14.4451 34.4552 14.4943 34.7427 14.7276C34.9855 14.9246 35.0523 15.1908 35.0843 15.3775C35.1163 15.5643 35.1561 15.9899 35.1244 16.3223C34.7633 20.1173 33.2004 29.3267 32.4054 33.5771C32.0689 35.3756 31.4065 35.9787 30.7652 36.0377C29.3714 36.1659 28.3131 35.1166 26.9632 34.2318C24.8509 32.8471 23.6576 31.9852 21.6072 30.634C19.2377 29.0725 20.7738 28.2143 22.1242 26.8117C22.4776 26.4446 28.6183 20.8591 28.7372 20.3524C28.7521 20.289 28.7659 20.0528 28.6255 19.9281C28.4852 19.8034 28.2781 19.846 28.1286 19.8799C27.9168 19.928 24.5423 22.1584 18.0053 26.5711C17.0475 27.2288 16.1799 27.5493 15.4026 27.5325C14.5457 27.514 12.8973 27.048 11.6719 26.6496C10.1689 26.1611 8.97432 25.9028 9.07834 25.073C9.13252 24.6408 9.72767 24.1989 10.8638 23.7471Z" fill="white"/>
<defs>
<linearGradient id="paint0_linear" x1="24" y1="0" x2="24" y2="47.6438" gradientUnits="userSpaceOnUse">
<stop stop-color="#2AABEE"/>
<stop offset="1" stop-color="#229ED9"/>
</linearGradient>
</defs>
</svg>
